<svg xmlns="http://www.w3.org/2000/svg" xmlns:xlink="http://www.w3.org/1999/xlink" width="14" height="9" version="1.1" viewBox="0 0 14 9"><title>ic_chevron-up</title><desc>Created with Sketch.</desc><g id="CRT---Key-Pages" fill="none" fill-rule="evenodd" stroke="none" stroke-width="1"><g id="Artboard" transform="translate(-228.000000, -50.000000)"><g id="ic_chevron-up" transform="translate(225.000000, 45.000000)"><rect id="Rectangle-Copy-8" width="20" height="20" x="0" y="0" transform="translate(10.000000, 10.000000) rotate(-180.000000) translate(-10.000000, -10.000000)"/><path id="Path-3-Copy-13" fill="#162E51" fill-rule="nonzero" d="M3.29289322,5.55458172 C3.65337718,5.17971191 4.22060824,5.15087577 4.61289944,5.4680733 L4.70710678,5.55458172 L10,11.0578809 L15.2928932,5.55458172 C15.6533772,5.17971191 16.2206082,5.15087577 16.6128994,5.4680733 L16.7071068,5.55458172 C17.0675907,5.92945154 17.0953203,6.51931911 16.7902954,6.9272655 L16.7071068,7.02523238 L10,14 L3.29289322,7.02523238 C2.90236893,6.61912341 2.90236893,5.96069069 3.29289322,5.55458172 Z" transform="translate(10.000000, 9.625000) rotate(-180.000000) translate(-10.000000, -9.625000)"/></g></g></g></svg>